<?xml version="1.0" encoding="UTF-8"?>
<!-- Generated by Pixelmator Pro 4.2 -->
<svg width="128" height="128" viewBox="0 0 128 128" xmlns="http://www.w3.org/2000/svg">
    <path id="Path" fill="#ffffff" stroke="#e5e7eb" stroke-width="1.5" d="M 34 6 L 94 6 C 109.463974 6 122 18.536026 122 34 L 122 94 C 122 109.463974 109.463974 122 94 122 L 34 122 C 18.536028 122 6 109.463974 6 94 L 6 34 C 6 18.536026 18.536028 6 34 6 Z"/>
    <g id="Group">
        <path id="path1" fill="#020617" stroke="none" d="M 73.437996 18.559998 L 74.998001 18.559998 L 74.998001 81.739998 C 74.998001 84.937996 73.125999 87.278 71.098 89.540001 C 67.821999 92.269997 64.234001 93.206001 60.177998 93.206001 C 55.185997 93.206001 52.377998 90.007996 52.377998 86.732002 C 52.612 80.024002 61.972 74.251999 67.666 74.486 C 69.772003 74.564003 72.424004 75.655998 73.437996 76.045998 Z"/>
        <path id="path2" fill="#020617" stroke="none" d="M 60.880001 106.699997 C 60.880001 104.976868 62.276875 103.580002 64 103.580002 C 65.723129 103.580002 67.120003 104.976868 67.120003 106.699997 C 67.120003 108.423126 65.723129 109.82 64 109.82 C 62.276875 109.82 60.880001 108.423126 60.880001 106.699997 Z"/>
    </g>
</svg>
