<?xml version="1.0" encoding="UTF-8"?>
<!-- Generated by Pixelmator Pro 4.3 -->
<svg viewBox="-133.333 -133.333 1066.667 1066.667" xmlns="http://www.w3.org/2000/svg">
    <g id="ICONS">
        <path id="Path" fill="#1d1d1b" stroke="none" d="M 452.8125 60.461243 L 168.28125 274.211243 C 166.40625 275.617493 165.15625 277.492493 164.0625 279.367493 L 0 279.367493 L 0 520.773743 L 164.0625 520.773743 C 165.15625 522.648743 166.5625 524.523743 168.28125 525.929932 L 452.8125 739.523682 C 464.0625 747.961304 480.15625 739.992432 480.15625 725.929932 L 480.15625 74.211243 C 480.15625 60.148743 464.0625 52.023743 452.8125 60.461243 Z M 643.75 680.773743 C 630 680.773743 616.562439 673.742493 609.0625 660.929993 C 597.96875 641.867493 604.375 617.336182 623.4375 606.242493 C 627.1875 604.054932 719.84375 546.242432 719.84375 399.992493 C 719.84375 251.554993 624.375 194.367493 623.4375 193.742493 C 604.375 182.648743 597.96875 158.117493 609.0625 139.054993 C 620.156311 119.992493 644.6875 113.586243 663.75 124.679993 C 669.53125 127.804993 800 206.242493 800 399.992493 C 800 593.742493 669.53125 672.179993 663.90625 675.304993 C 657.5 679.054932 650.625 680.773743 643.75 680.773743 Z"/>
        <path id="path1" fill="#1d1d1b" stroke="none" d="M 558.125 570.617493 C 544.375061 570.617493 530.9375 563.586243 523.593689 550.773743 C 512.5 531.711243 518.906189 507.179932 537.96875 496.086243 C 539.0625 495.461182 576.406311 471.086243 576.406311 409.992554 C 576.406311 348.898743 539.0625 324.523743 537.343811 323.429993 C 518.906189 311.867493 512.8125 287.336243 524.21875 268.742493 C 535.46875 249.992493 559.375 243.742493 578.281189 254.679993 C 581.406189 256.554993 656.40625 301.398743 656.40625 409.992554 C 656.40625 518.586304 581.406189 563.429932 578.281189 565.304993 C 571.875 568.898682 564.999939 570.617493 558.125 570.617493 Z"/>
    </g>
</svg>
