<?xml version="1.0" encoding="UTF-8"?>
<!-- Generated by Pixelmator Pro 4.2 -->
<svg width="128" height="128" viewBox="0 0 128 128" xmlns="http://www.w3.org/2000/svg">
    <path id="Path" fill="#ffffff" stroke="#e5e7eb" stroke-width="1.5" d="M 34 6 L 94 6 C 109.463974 6 122 18.536026 122 34 L 122 94 C 122 109.463974 109.463974 122 94 122 L 34 122 C 18.536028 122 6 109.463974 6 94 L 6 34 C 6 18.536026 18.536028 6 34 6 Z"/>
    <g id="Group">
        <g id="g1">
            <path id="path1" fill="#020617" stroke="none" d="M 5 35.5 L 123 35.5 L 123 37.860001 L 5 37.860001 Z"/>
            <path id="path2" fill="#020617" stroke="none" d="M 5 49.660004 L 123 49.660004 L 123 52.019997 L 5 52.019997 Z"/>
            <path id="path3" fill="#020617" stroke="none" d="M 5 63.82 L 123 63.82 L 123 66.18 L 5 66.18 Z"/>
            <path id="path4" fill="#020617" stroke="none" d="M 5 77.979996 L 123 77.979996 L 123 80.339996 L 5 80.339996 Z"/>
            <path id="path5" fill="#020617" stroke="none" d="M 5 92.139999 L 123 92.139999 L 123 94.5 L 5 94.5 Z"/>
            <path id="path6" fill="#020617" stroke="none" d="M 62.82 35.5 L 65.18 35.5 L 65.18 94.5 L 62.82 94.5 Z"/>
        </g>
    </g>
</svg>
