<?xml version="1.0" encoding="UTF-8"?>
<!-- Generated by Pixelmator Pro 4.2 -->
<svg width="128" height="128" viewBox="0 0 128 128" xmlns="http://www.w3.org/2000/svg">
    <path id="Path" fill="#ffffff" stroke="#e5e7eb" stroke-width="1.5" d="M 34 6 L 94 6 C 109.463974 6 122 18.536026 122 34 L 122 94 C 122 109.463974 109.463974 122 94 122 L 34 122 C 18.536028 122 6 109.463974 6 94 L 6 34 C 6 18.536026 18.536028 6 34 6 Z"/>
    <g id="Group">
        <g id="g1">
            <path id="path1" fill="#020617" stroke="none" d="M 65.860802 24.681129 C 76.426781 24.681129 88.082016 28.275749 88.082016 37.970276 C 88.082016 47.88269 74.683929 50.82373 66.078667 50.82373 L 68.366135 48.64518 C 73.267876 48.64518 75.991066 45.813065 75.991066 40.148842 C 75.991066 32.088211 70.000046 26.750755 64.662598 26.750755 C 58.562664 26.750755 57.582314 31.652496 57.582314 35.029243 C 57.691238 44.179153 64.55368 48.536263 68.366135 48.536263 L 66.078667 50.714806 C 58.671593 50.714806 45.491367 47.555901 45.600288 37.534584 C 45.709217 27.840034 57.691238 24.572212 65.860802 24.681129 Z"/>
            <path id="path2" fill="#020617" stroke="none" d="M 65.860802 50.714806 C 76.426781 50.714806 88.082016 54.30941 88.082016 64.003952 C 88.082016 73.916367 74.683929 76.857407 66.078667 76.857407 L 68.366135 74.678856 C 73.267876 74.678856 75.991066 71.846741 75.991066 66.18251 C 75.991066 58.121872 70.000046 52.784431 64.662598 52.784431 C 58.562664 52.784431 57.582314 57.686172 57.582314 61.06292 C 57.691238 70.21283 64.55368 74.569931 68.366135 74.569931 L 66.078667 76.748482 C 58.671593 76.748482 45.491367 73.589584 45.600288 63.568245 C 45.709217 53.873711 57.691238 50.605888 65.860802 50.714806 Z"/>
            <path id="path3" fill="#020617" stroke="none" d="M 65.860802 76.857407 C 76.426781 76.857407 88.082016 80.452011 88.082016 90.146561 C 88.082016 100.05896 74.683929 103 66.078667 103 L 68.366135 100.821457 C 73.267876 100.821457 75.991066 97.989349 75.991066 92.325111 C 75.991066 84.264473 70.000046 78.927032 64.662598 78.927032 C 58.562664 78.927032 57.582314 83.828766 57.582314 87.205521 C 57.691238 96.355431 64.55368 100.712532 68.366135 100.712532 L 66.078667 102.891083 C 58.671593 102.891083 45.491367 99.732178 45.600288 89.710846 C 45.709217 80.016312 57.691238 76.748482 65.860802 76.857407 Z"/>
        </g>
    </g>
</svg>
