<?xml version="1.0" encoding="UTF-8"?>
<!-- Generated by Pixelmator Pro 4.3 -->
<svg viewBox="0 0 128 128" xmlns="http://www.w3.org/2000/svg">
    <path id="Path" fill="#ffffff" stroke="#e5e7eb" stroke-width="1.5" d="M 34 6 L 94 6 C 109.463974 6 122 18.536026 122 34 L 122 94 C 122 109.463974 109.463974 122 94 122 L 34 122 C 18.536028 122 6 109.463974 6 94 L 6 34 C 6 18.536026 18.536028 6 34 6 Z"/>
    <path id="Path-copy-5" fill="#000000" stroke="#111827" stroke-width="3" stroke-linejoin="round" d="M 93 57 L 82 77 L 94 77 L 89 95 L 109 69 L 97 69 L 105 57 Z"/>
    <path id="Path-copy" fill="none" stroke="#111827" stroke-width="6" stroke-linecap="round" d="M 37 34 L 105 34 M 37 64.5 L 73.95652 64.5 M 37 95 L 66.565216 95"/>
    <path id="Path-copy-4" fill="#000000" stroke="none" d="M 24.5 34 C 24.5 35.932999 22.932997 37.5 21 37.5 C 19.067003 37.5 17.5 35.932999 17.5 34 C 17.5 32.067001 19.067003 30.5 21 30.5 C 22.932997 30.5 24.5 32.067001 24.5 34 Z"/>
    <path id="Path-copy-3" fill="#000000" stroke="none" d="M 24.5 64 C 24.5 65.932999 22.932997 67.5 21 67.5 C 19.067003 67.5 17.5 65.932999 17.5 64 C 17.5 62.067001 19.067003 60.5 21 60.5 C 22.932997 60.5 24.5 62.067001 24.5 64 Z"/>
    <path id="Path-copy-2" fill="#000000" stroke="none" d="M 24.5 95 C 24.5 96.932999 22.932997 98.5 21 98.5 C 19.067003 98.5 17.5 96.932999 17.5 95 C 17.5 93.067001 19.067003 91.5 21 91.5 C 22.932997 91.5 24.5 93.067001 24.5 95 Z"/>
</svg>
