<?xml version="1.0" encoding="iso-8859-1"?>
<!-- Uploaded to: SVG Repo, www.svgrepo.com, Generator: SVG Repo Mixer Tools -->
<svg fill="#000000" height="800px" width="800px" version="1.1" id="Layer_1" xmlns="http://www.w3.org/2000/svg" xmlns:xlink="http://www.w3.org/1999/xlink" 
	 viewBox="0 0 512 512" xml:space="preserve">
<g>
	<g>
		<path d="M476.356,195.666L476.356,195.666L356.299,55.601l44.087-22.615L383.465,0L2.876,195.237l0.22,0.429h-0.41v172.995h37.07
			v142.103h37.07V368.661h123.568V474.93h-18.535V512h148.281v-37.07h-18.535V368.661h123.568v142.103h37.07V368.661h37.07V195.666
			H476.356z M322.387,72.997l105.145,122.668H83.259L322.387,72.997z M89.183,331.591H39.756v-37.07h49.427V331.591z
			 M163.324,331.591h-37.07v-37.07h37.07V331.591z M274.535,474.93h-37.07V368.661h37.07V474.93z M200.394,331.591v-37.07h37.07
			v37.07H200.394z M311.606,331.591h-37.07v-37.07h37.07V331.591z M385.746,331.591h-37.07v-37.07h37.07V331.591z M472.244,331.591
			h-49.427v-37.07h49.427V331.591z M472.244,257.45H39.756v-24.714h432.488V257.45z"/>
	</g>
</g>
</svg>
