<?xml version="1.0" encoding="UTF-8"?>
<!-- Generated by Pixelmator Pro 4.2 -->
<svg width="128" height="128" viewBox="0 0 128 128" xmlns="http://www.w3.org/2000/svg">
    <path id="Path" fill="#ffffff" stroke="#e5e7eb" stroke-width="1.5" d="M 34 6 L 94 6 C 109.463974 6 122 18.536026 122 34 L 122 94 C 122 109.463974 109.463974 122 94 122 L 34 122 C 18.536028 122 6 109.463974 6 94 L 6 34 C 6 18.536026 18.536028 6 34 6 Z"/>
    <g id="Group">
        <path id="path1" fill="#020617" stroke="none" d="M 50.855999 102.352005 C 45.928001 97.863998 48.656002 90.735992 56.751999 86.512001 C 59.48 85.192001 61.503998 84.575996 65.024002 84.664001 C 67.223999 84.751999 69.688004 85.984001 69.688004 85.984001 C 69.688004 70.056 69.599998 39.959999 69.599998 25.176003 C 70.480003 25.176003 71.096001 25.087997 72.327995 25.087997 C 72.327995 25.968002 72.327995 26.671997 72.327995 27.375999 C 72.327995 28.167999 72.327995 28.608002 72.416 29.136002 C 73.295998 34.68 74.528 36.879997 80.687996 43.655998 C 88.519997 52.368004 90.807999 57.559998 90.807999 64.512001 C 90.720001 71.024002 85 84.927994 83.767998 84.400002 C 85.528 79.472 87.992004 74.192001 88.608002 69.792 C 89.400002 64.423996 87.199997 56.856003 83.68 52.896004 C 80.863998 49.552002 74.176003 46.648003 72.327995 46.648003 C 72.327995 46.648003 72.239998 78.68 72.239998 90.824005 C 72.239998 92.848 70.391998 96.455994 69.336006 97.688004 C 64.496002 103.495995 55.080002 106.136002 50.855999 102.352005 Z"/>
    </g>
</svg>
