<?xml version="1.0" encoding="UTF-8"?>
<!-- Generated by Pixelmator Pro 4.2 -->
<svg width="128" height="128" viewBox="0 0 128 128" xmlns="http://www.w3.org/2000/svg">
    <path id="Path" fill="#ffffff" stroke="#b8babf" stroke-width="1.8" d="M 29 3 L 99 3 C 113.359406 3 125 14.640594 125 29 L 125 99 C 125 113.359406 113.359406 125 99 125 L 29 125 C 14.640596 125 3 113.359406 3 99 L 3 29 C 3 14.640594 14.640596 3 29 3 Z"/>
    <g id="Group-copy">
        <g id="Group">
            <path id="path1" fill="#020617" stroke="none" d="M 70.972275 9.101997 L 73 9.101997 L 73 91.962372 C 73 96.15654 70.566734 99.225449 67.930687 102.192047 C 63.67247 105.77243 59.008701 107 53.736622 107 C 47.247906 107 43.598 102.805832 43.598 98.509369 C 43.902157 89.711845 56.068504 82.141884 63.469696 82.448776 C 66.207123 82.551071 69.654251 83.983223 70.972275 84.494705 Z"/>
        </g>
    </g>
    <g id="g1">
        <path id="path2" fill="#000000" stroke="none" d="M 90 90.5 C 90 92.985275 87.985283 95 85.5 95 C 83.014717 95 81 92.985275 81 90.5 C 81 88.014725 83.014717 86 85.5 86 C 87.985283 86 90 88.014725 90 90.5 Z"/>
    </g>
</svg>
