<?xml version="1.0" encoding="UTF-8"?>
<!-- Generated by Pixelmator Pro 4.2 -->
<svg width="128" height="128" viewBox="0 0 128 128" xmlns="http://www.w3.org/2000/svg">
    <path id="Path" fill="#ffffff" stroke="#e5e7eb" stroke-width="1.5" d="M 34 6 L 94 6 C 109.463974 6 122 18.536026 122 34 L 122 94 C 122 109.463974 109.463974 122 94 122 L 34 122 C 18.536028 122 6 109.463974 6 94 L 6 34 C 6 18.536026 18.536028 6 34 6 Z"/>
    <g id="Group-copy-copy">
        <g id="Group">
            <path id="path1" fill="#020617" stroke="none" d="M 70.972275 14.101997 L 73 14.101997 L 73 96.962372 C 73 101.15654 70.566734 104.225449 67.930687 107.192047 C 63.67247 110.77243 59.008701 112 53.736622 112 C 47.247906 112 43.598 107.805832 43.598 103.509369 C 43.902157 94.711845 56.068504 87.141884 63.469696 87.448776 C 66.207123 87.551071 69.654251 88.983223 70.972275 89.494705 Z"/>
        </g>
    </g>
    <g id="g1-copy">
        <path id="path2" fill="#000000" stroke="none" d="M 90 95.5 C 90 97.985275 87.985283 100 85.5 100 C 83.014717 100 81 97.985275 81 95.5 C 81 93.014725 83.014717 91 85.5 91 C 87.985283 91 90 93.014725 90 95.5 Z"/>
    </g>
</svg>
