<?xml version="1.0" encoding="UTF-8"?>
<!-- Generated by Pixelmator Pro 4.2 -->
<svg width="128" height="128" viewBox="0 0 128 128" xmlns="http://www.w3.org/2000/svg">
    <path id="Path" fill="#ffffff" stroke="#e5e7eb" stroke-width="1.5" d="M 34 6 L 94 6 C 109.463974 6 122 18.536026 122 34 L 122 94 C 122 109.463974 109.463974 122 94 122 L 34 122 C 18.536028 122 6 109.463974 6 94 L 6 34 C 6 18.536026 18.536028 6 34 6 Z"/>
    <g id="Group">
        <path id="path1" fill="#020617" stroke="none" d="M 39.920891 96.178505 C 37.212711 94.911179 35.058983 92.364349 35.001839 89.415466 C 34.927467 85.577095 37.109756 82.150223 41.257397 82.096397 C 42.990692 82.073929 45.267551 82.77597 45.934082 85.669205 C 46.009235 88.704857 43.926701 91.32782 41.320419 92.684807 C 41.551506 93.61026 42.303806 94.351051 43.78421 93.979492 C 48.349632 92.833633 51.445881 86.629929 56.321217 68.860031 C 58.275127 61.738289 60.166195 54.416382 60.326214 53.862465 L 53.415508 53.862465 L 53.415508 50.451775 L 62.335663 50.451775 L 63.398079 48.110847 C 66.230675 41.869484 71.740005 36.085983 77.701195 33.585205 C 81.591011 31.953384 86.300873 31.861618 88.417076 32.851639 C 91.993477 34.524788 92.929092 38.614159 91.058823 42.919693 C 89.712868 46.018196 87.76207 46.960106 85.345566 46.66037 C 83.548416 46.437454 81.967415 44.903015 81.806656 43.509033 C 81.575043 41.500725 82.386566 39.700012 84.528313 38.390823 C 85.666733 37.694931 86.90509 37.672012 87.419174 36.766624 C 84.966805 33.062096 80.893456 35.407707 78.407242 38.995316 C 77.607079 40.149956 76.0653 43.133568 74.981079 45.625565 L 72.95594 50.451775 L 82.765701 50.451775 L 82.765701 53.862465 L 72.083717 53.862465 L 69.896935 60.946983 C 65.329552 75.744003 60.218906 86.384277 55.342918 91.388641 C 50.66679 96.187881 44.42054 98.284187 39.920891 96.178505 Z"/>
    </g>
</svg>
