<?xml version="1.0" encoding="UTF-8"?>
<!-- Generated by Pixelmator Pro 4.3 -->
<svg viewBox="0 0 128 128" xmlns="http://www.w3.org/2000/svg">
    <path id="Path" fill="#ffffff" stroke="#e5e7eb" stroke-width="1.5" d="M 34 6 L 94 6 C 109.463974 6 122 18.536026 122 34 L 122 94 C 122 109.463974 109.463974 122 94 122 L 34 122 C 18.536028 122 6 109.463974 6 94 L 6 34 C 6 18.536026 18.536028 6 34 6 Z"/>
    <g id="exam">
        <g id="Group">
            <g id="g1">
                <path id="path1" fill="#000000" stroke="none" d="M 83.054329 22 L 25.771797 22 C 24.240967 22 23 23.240967 23 24.771797 L 23 104.228371 C 23 105.759033 24.240967 107 25.771797 107 L 83.054329 107 C 84.584991 107 85.826126 105.759033 85.826126 104.228203 L 85.826126 24.771797 C 85.826126 23.240967 84.585159 22 83.054329 22 Z M 80.282532 101.456573 L 28.543428 101.456573 L 28.543428 27.543427 L 80.282532 27.543427 L 80.282532 101.456573 Z"/>
            </g>
        </g>
        <g id="g2">
            <g id="g3">
                <path id="path2" fill="#000000" stroke="none" d="M 107.775879 36.614685 L 102.232452 23.679909 C 101.795502 22.660744 100.793434 22 99.684776 22 C 98.576126 22 97.574059 22.660744 97.1371 23.679909 L 91.593666 36.614685 C 91.445923 36.959671 91.369545 37.331215 91.369545 37.706573 L 91.369545 98.684776 C 91.369545 103.280746 95.088631 107 99.684776 107 C 104.280754 107 108 103.280914 108 98.684776 L 108 37.706573 C 108 37.331215 107.92363 36.959671 107.775879 36.614685 Z M 102.456573 98.684776 C 102.456573 100.216606 101.217102 101.456573 99.684776 101.456573 C 98.152954 101.456573 96.912979 100.217102 96.912979 98.684776 L 96.912979 95.912979 L 102.456406 95.912979 L 102.456406 98.684776 Z M 102.456573 90.369553 L 96.913139 90.369553 L 96.913139 44.173874 L 102.456573 44.173874 L 102.456573 90.369553 Z M 102.456573 38.630447 L 96.913139 38.630447 L 96.913139 38.275513 L 99.684937 31.808037 L 102.456741 38.275513 L 102.456741 38.630447 Z"/>
            </g>
        </g>
        <g id="g4">
            <g id="g5">
                <path id="path3" fill="#000000" stroke="none" d="M 60.880451 33.087021 L 47.945675 33.087021 C 46.415009 33.087021 45.173878 34.327988 45.173878 35.858818 C 45.173878 37.389648 46.414841 38.630615 47.945675 38.630615 L 60.880451 38.630615 C 62.411114 38.630615 63.652245 37.389648 63.652245 35.858818 C 63.652245 34.327988 62.411114 33.087021 60.880451 33.087021 Z"/>
            </g>
        </g>
        <g id="g6">
            <g id="g7">
                <path id="path4" fill="#000000" stroke="none" d="M 71.967468 44.173874 L 36.85865 44.173874 C 35.327988 44.173874 34.086857 45.414841 34.086857 46.945679 C 34.086857 48.476501 35.327824 49.717468 36.85865 49.717468 L 71.9673 49.717468 C 73.497971 49.717468 74.739105 48.476501 74.739105 46.945679 C 74.739105 45.414841 73.498131 44.173874 71.967468 44.173874 Z"/>
            </g>
        </g>
        <g id="g8">
            <g id="g9">
                <path id="path5" fill="#000000" stroke="none" d="M 71.967468 55.260902 L 59.032696 55.260902 C 57.502033 55.260902 56.260899 56.501869 56.260899 58.0327 C 56.260899 59.563362 57.501865 60.804489 59.032696 60.804489 L 71.967468 60.804489 C 73.498131 60.804489 74.739265 59.563522 74.739265 58.0327 C 74.739105 56.501869 73.498131 55.260902 71.967468 55.260902 Z"/>
            </g>
        </g>
        <g id="g10">
            <g id="g11">
                <path id="path6" fill="#000000" stroke="none" d="M 47.945675 55.260902 L 36.85865 55.260902 C 35.327988 55.260902 34.086857 56.501869 34.086857 58.0327 C 34.086857 59.563362 35.327824 60.804489 36.85865 60.804489 L 47.945675 60.804489 C 49.476337 60.804489 50.717468 59.563522 50.717468 58.0327 C 50.717468 56.501869 49.476337 55.260902 47.945675 55.260902 Z"/>
            </g>
        </g>
        <g id="g12">
            <g id="g13">
                <path id="path7" fill="#000000" stroke="none" d="M 71.967468 66.347755 L 36.85865 66.347755 C 35.327988 66.347755 34.086857 67.588722 34.086857 69.119553 C 34.086857 70.650215 35.327824 71.89135 36.85865 71.89135 L 71.9673 71.89135 C 73.497971 71.89135 74.739105 70.650375 74.739105 69.119553 C 74.739105 67.588882 73.498131 66.347755 71.967468 66.347755 Z"/>
            </g>
        </g>
        <g id="g14">
            <g id="g15">
                <path id="path8" fill="#000000" stroke="none" d="M 53.489101 77.434769 L 36.85865 77.434769 C 35.327988 77.434769 34.086857 78.675743 34.086857 80.206573 C 34.086857 81.737396 35.327824 82.978363 36.85865 82.978363 L 53.489101 82.978363 C 55.019764 82.978363 56.260899 81.737396 56.260899 80.206573 C 56.260899 78.675743 55.019932 77.434769 53.489101 77.434769 Z"/>
            </g>
        </g>
        <g id="g16">
            <g id="g17">
                <path id="path9" fill="#000000" stroke="none" d="M 71.967468 88.521805 L 36.85865 88.521805 C 35.327988 88.521805 34.086857 89.762756 34.086857 91.293594 C 34.086857 92.824425 35.327824 94.065392 36.85865 94.065392 L 71.9673 94.065392 C 73.497971 94.065392 74.739105 92.824425 74.739105 91.293594 C 74.739105 89.762756 73.498131 88.521805 71.967468 88.521805 Z"/>
            </g>
        </g>
        <g id="g18">
            <g id="g19">
                <path id="path10" fill="#000000" stroke="none" d="M 71.967468 77.434769 L 64.576126 77.434769 C 63.04546 77.434769 61.804325 78.675743 61.804325 80.206573 C 61.804325 81.737396 63.045292 82.978363 64.576126 82.978363 L 71.967468 82.978363 C 73.498131 82.978363 74.739265 81.737396 74.739265 80.206573 C 74.739265 78.675743 73.498131 77.434769 71.967468 77.434769 Z"/>
            </g>
        </g>
    </g>
</svg>
