<?xml version="1.0" encoding="UTF-8"?>
<!-- Generated by Pixelmator Pro 4.3 -->
<svg viewBox="0 0 128 128" xmlns="http://www.w3.org/2000/svg">
    <path id="Path" fill="#ffffff" stroke="#e5e7eb" stroke-width="1.5" d="M 34 6 L 94 6 C 109.463974 6 122 18.536026 122 34 L 122 94 C 122 109.463974 109.463974 122 94 122 L 34 122 C 18.536028 122 6 109.463974 6 94 L 6 34 C 6 18.536026 18.536028 6 34 6 Z"/>
    <path id="familyfortunes" fill="#231f20" stroke="none" d="M 114.830765 50.936981 C 114.45887 49.825928 113.49633 49.016464 112.338455 48.838318 L 81.596382 44.140923 L 67.822304 14.797096 C 67.306656 13.700096 66.203476 13.000023 64.992477 13.000023 C 63.78149 13.000023 62.679874 13.700096 62.162663 14.797096 L 48.388577 44.140923 L 17.646511 48.839882 C 16.488646 49.016464 15.527662 49.827484 15.154207 50.938545 C 14.782314 52.048042 15.062016 53.273178 15.880804 54.112328 L 38.216228 77.016403 L 32.937855 109.369934 C 32.744095 110.551315 33.242558 111.740509 34.22229 112.428085 C 34.759815 112.807816 35.389534 113.000023 36.020809 113.000023 C 36.539585 113.000023 37.061485 112.868759 37.533382 112.60936 L 64.990921 97.421753 L 92.448456 112.60936 C 92.920349 112.868759 93.442253 113.000023 93.961029 113.000023 C 94.592308 113.000023 95.223587 112.807816 95.759552 112.428085 C 96.739288 111.740509 97.237747 110.551315 97.043983 109.369934 L 91.765617 77.016403 L 114.101036 54.112328 C 114.921387 53.271614 115.202644 52.046478 114.830765 50.936981 Z"/>
</svg>
