<?xml version="1.0" encoding="UTF-8"?>
<!-- Generated by Pixelmator Pro 4.2 -->
<svg width="128" height="128" viewBox="0 0 128 128" xmlns="http://www.w3.org/2000/svg">
    <path id="Path" fill="#ffffff" stroke="#e5e7eb" stroke-width="1.5" d="M 34 6 L 94 6 C 109.463974 6 122 18.536026 122 34 L 122 94 C 122 109.463974 109.463974 122 94 122 L 34 122 C 18.536028 122 6 109.463974 6 94 L 6 34 C 6 18.536026 18.536028 6 34 6 Z"/>
    <g id="Group">
        <g id="g1">
            <g id="g2">
                <path id="path1" fill="#020617" stroke="none" d="M 45.719849 96.781784 L 46.748562 96.781784 L 46.748562 30.539734 L 45.719849 30.539734 L 45.719849 96.781784 Z"/>
                <path id="path2" fill="#020617" stroke="none" d="M 95.619484 85.086555 L 96.648201 85.086555 L 96.648201 18.844513 L 95.619484 18.844513 L 95.619484 85.086555 Z"/>
                <path id="path3" fill="#020617" stroke="none" d="M 36.959644 88.650711 C 33.597752 89.066299 30.16177 90.448929 27.203159 92.749184 C 23.841261 95.205772 21.545145 98.485374 20.804445 101.847267 C 20.64397 102.921257 20.64397 104.801781 20.886749 105.624756 C 21.623329 108.501099 23.923571 110.299324 27.36364 111.039993 C 28.342985 111.2005 30.820171 111.2005 32.042294 111.039993 C 35.157295 110.459793 38.358719 109.06073 41.136292 107.01973 C 44.415894 104.563103 46.716133 101.283508 47.456799 97.921608 C 47.617302 96.847626 47.617302 94.967117 47.374523 94.065948 C 46.633823 91.366547 44.415894 89.54776 41.136292 88.81118 C 40.239243 88.650711 37.939003 88.56842 36.959644 88.650711 Z"/>
                <path id="path4" fill="#020617" stroke="none" d="M 86.859283 76.955482 C 83.497383 77.371071 80.061424 78.753708 77.102806 81.053955 C 73.740921 83.510544 71.444778 86.790146 70.704086 90.152031 C 70.543602 91.226028 70.543602 93.10656 70.786377 93.92952 C 71.522964 96.80587 73.823212 98.604095 77.263283 99.344757 C 78.242622 99.505272 80.719795 99.505272 81.941948 99.344757 C 85.056923 98.764572 88.258347 97.365501 91.035927 95.324509 C 94.315529 92.867874 96.615776 89.58828 97.356422 86.226379 C 97.51693 85.15239 97.51693 83.271896 97.274178 82.37072 C 96.533485 79.671318 94.315529 77.852539 91.035927 77.115959 C 90.138878 76.955482 87.838631 76.873184 86.859283 76.955482 Z"/>
                <path id="path5" fill="#020617" stroke="none" d="M 95.812813 18 L 45.594463 29.615715 L 46.293163 36.90377 L 96.424171 25.375389 L 95.812813 18 Z"/>
            </g>
        </g>
    </g>
</svg>
