<svg width="128" height="128" viewBox="0 0 128 128" xmlns="http://www.w3.org/2000/svg">
  <rect x="6" y="6" width="116" height="116" rx="28" fill="#ffffff" stroke="#e5e7eb" stroke-width="1.5"/>

  <g transform="translate(6 2) scale(0.58)">
    <g fill="#020617">
      <path d="m 40.1,51.9 2,0 0,81 c 0,4.1 -2.4,7.1 -5,10 -4.2,3.5 -8.8,4.7 -14,4.7 -6.4,0 -10,-4.1 -10,-8.3 0.3,-8.6 12.3,-16 19.6,-15.7 2.7,0.1 6.1,1.5 7.4,2 z"/>
      <path d="m 160,147 -2,0 0,-81 c 0,-4.1 2.4,-7.1 5,-10 4.2,-3.5 8.8,-4.7 14,-4.7 6.4,0 10,4.1 10,8.3 -0.3,8.6 -12.3,16 -19.6,15.7 -2.7,-0.1 -6.1,-1.5 -7.4,-2 z"/>
    </g>

    <line
      x1="62"
      y1="122"
      x2="138"
      y2="78"
      fill="none"
      stroke="#020617"
      stroke-width="5"
      stroke-linecap="round"/>
  </g>
</svg>
