<?xml version="1.0" encoding="UTF-8"?>
<!-- Generated by Pixelmator Pro 4.3 -->
<svg viewBox="0 0 128 128" xmlns="http://www.w3.org/2000/svg">
    <path id="Path" fill="#ffffff" stroke="#e5e7eb" stroke-width="1.5" d="M 34 6 L 94 6 C 109.463974 6 122 18.536026 122 34 L 122 94 C 122 109.463974 109.463974 122 94 122 L 34 122 C 18.536028 122 6 109.463974 6 94 L 6 34 C 6 18.536026 18.536028 6 34 6 Z"/>
    <g id="PoundSign">
        <path id="path1" fill="#000000" stroke="none" d="M 74.442856 61.065742 L 74.442856 67.930664 L 57.467236 67.930664 C 58.714218 71.509186 59.337723 74.422272 59.337753 76.669907 L 59.337753 76.795624 C 59.337723 81.372253 56.924969 86.531738 52.099499 92.274063 C 50.184509 94.605553 47.68795 97.310379 44.609802 100.388527 C 49.5191 97.142754 54.594765 95.519859 59.836815 95.519852 C 62.749859 95.519859 66.161995 96.144638 70.073235 97.394173 C 74.649796 98.725006 77.937485 99.390427 79.93631 99.390411 C 83.265854 99.390427 86.719894 98.142136 90.298447 95.645569 L 95.540466 103.88575 C 90.796173 108.546173 85.344627 110.876366 79.185814 110.876366 C 75.52346 110.876366 70.23954 109.71064 63.33403 107.37915 L 60.960644 106.50676 C 58.215157 105.589912 55.468433 105.131493 52.720463 105.131493 C 48.311455 105.131493 43.776756 106.671844 39.116352 109.752548 L 33.123833 101.51236 C 41.611629 94.187767 46.604752 87.904465 48.103218 82.662415 C 48.519714 81.164001 48.72797 79.583008 48.727989 77.919449 C 48.72797 77.919479 48.72797 77.877579 48.727989 77.793732 L 48.727989 77.668015 C 48.72797 74.506088 47.728588 71.2603 45.729828 67.930664 L 32 67.930664 L 32 61.065742 L 42.110703 61.065742 C 38.283306 54.741844 36.161358 50.207153 35.744846 47.461632 C 35.577213 46.712471 35.493404 45.87944 35.493412 44.962532 L 35.493412 43.712975 C 35.493404 35.474136 38.822998 28.733673 45.482208 23.49157 C 50.975639 19.163948 57.507839 17.000092 65.078835 17 L 65.204552 17 C 74.609161 17.000092 81.891853 20.079521 87.052658 26.238304 L 89.174614 29.358368 C 91.419678 33.185837 92.584145 38.71991 92.668022 45.960648 L 81.684921 45.960648 C 81.352158 33.145195 75.692352 26.737434 64.70549 26.737358 C 57.299583 26.737434 52.098202 29.358444 49.101337 34.600395 C 47.770489 36.931946 47.10508 39.596123 47.105099 42.592949 L 47.105099 42.714859 C 47.10508 45.87944 48.020653 49.209038 49.85183 52.703651 L 49.85183 52.829369 L 49.977543 52.951279 C 50.31023 53.700554 50.767384 54.616127 51.349003 55.698006 L 52.472836 57.572334 L 54.469074 61.065742 Z"/>
    </g>
</svg>
