<?xml version="1.0" encoding="UTF-8"?>
<!-- Generated by Pixelmator Pro 4.3 -->
<svg viewBox="0 0 128 128" xmlns="http://www.w3.org/2000/svg">
    <path id="Path" fill="#ffffff" stroke="#e5e7eb" stroke-width="1.5" d="M 34 6 L 94 6 C 109.463974 6 122 18.536026 122 34 L 122 94 C 122 109.463974 109.463974 122 94 122 L 34 122 C 18.536028 122 6 109.463974 6 94 L 6 34 C 6 18.536026 18.536028 6 34 6 Z"/>
    <g id="ashoka-chakra-svgrepo-com">
        <path id="path1" fill="#000000" stroke="none" d="M 100.068176 27.945862 C 100.066124 27.943817 100.064301 27.941315 100.062256 27.939255 C 100.059975 27.936981 100.05748 27.935165 100.055199 27.932655 C 90.42881 18.3106 77.633781 13.009483 64.023415 13.003792 C 64.015678 13.003792 64.008385 13.002655 64.000648 13.002655 C 63.99268 13.002655 63.98494 13.003792 63.976971 13.003792 C 50.365013 13.01017 37.56884 18.313332 27.942684 27.938347 C 27.942228 27.938805 27.942001 27.939034 27.941545 27.939491 C 27.941319 27.939713 27.94109 27.939941 27.940863 27.940178 C 27.940863 27.940178 27.940636 27.940399 27.940409 27.940628 C 18.308331 37.572929 13.003572 50.379578 13.003572 64.001778 C 13.003572 77.623978 18.308331 90.430626 27.940409 100.062927 C 37.572941 109.695236 50.379581 114.999992 64.001785 114.999992 C 77.623756 114.999992 90.430634 109.695236 100.062943 100.062927 C 109.695465 90.430626 115 77.623749 115 64.001778 C 115 50.38208 109.697289 37.577713 100.068176 27.945862 Z M 110.768074 74.999947 L 77.420212 66.063889 C 77.449806 65.871048 77.473259 65.676376 77.494438 65.481026 L 112.015091 65.481026 C 111.916046 68.745529 111.490288 71.92897 110.768074 74.999947 Z M 106.316902 86.723511 L 76.424332 69.466141 C 76.503563 69.286728 76.578468 69.105042 76.650192 68.921753 L 110.000099 77.85849 C 109.065018 80.9561 107.82666 83.923027 106.316902 86.723511 Z M 98.98259 96.889954 L 74.584435 72.489761 C 74.706245 72.33812 74.825546 72.184433 74.940987 72.027786 L 104.831276 89.283783 C 103.135048 92.012779 101.173798 94.560318 98.98259 96.889954 Z M 89.284027 104.831039 L 72.027336 74.941208 C 72.184898 74.825317 72.339493 74.705322 72.491814 74.582832 L 96.889511 98.982803 C 94.560318 101.174011 92.013023 103.13504 89.284027 104.831039 Z M 77.85804 109.99987 L 68.921761 76.649963 C 69.105049 76.578461 69.286507 76.503555 69.465919 76.424316 L 86.724197 106.316437 C 83.923256 107.826424 80.955879 109.06501 77.85804 109.99987 Z M 41.279598 106.316666 L 58.53788 76.424545 C 58.716606 76.503326 58.897388 76.578003 59.079762 76.649269 L 50.143475 109.99942 C 47.046322 109.064552 44.079857 107.826195 41.279598 106.316666 Z M 31.114063 98.983032 L 55.511761 74.583069 C 55.664082 74.705551 55.818676 74.825546 55.976231 74.941429 L 38.719772 104.831039 C 35.99078 103.13504 33.443474 101.174011 31.114063 98.983032 Z M 23.172297 89.283783 L 53.062588 72.027786 C 53.17802 72.184662 53.297325 72.338348 53.419136 72.489975 L 29.021212 96.889954 C 26.829775 94.560539 24.868525 92.013016 23.172297 89.283783 Z M 18.003691 77.85849 L 51.353607 68.921753 C 51.425098 69.10527 51.500233 69.286728 51.579468 69.466141 L 21.686899 86.723511 C 20.176914 83.923027 18.938553 80.9561 18.003691 77.85849 Z M 17.23572 53.002243 L 50.583359 61.938293 C 50.553761 62.131142 50.530312 62.325813 50.509132 62.521164 L 15.988252 62.521164 C 16.087749 59.25666 16.513514 56.073212 17.23572 53.002243 Z M 21.686443 41.280731 L 51.578781 58.539009 C 51.500008 58.717506 51.425556 58.898064 51.35429 59.080437 L 18.004147 50.1437 C 18.93878 47.046768 20.176914 44.080536 21.686443 41.280731 Z M 29.021896 31.112915 L 53.419823 55.512894 C 53.297325 55.665215 53.177563 55.81958 53.061672 55.977356 L 23.171839 38.720444 C 24.868298 35.990768 26.830002 33.442787 29.021896 31.112915 Z M 38.72023 23.172058 L 55.97691 53.061668 C 55.819359 53.177559 55.664989 53.297318 55.512669 53.419815 L 31.114975 29.019836 C 33.444157 26.828857 35.991463 24.868057 38.72023 23.172058 Z M 50.143936 18.004135 L 59.080215 51.354279 C 58.897846 51.425545 58.717064 51.5 58.538559 51.579002 L 41.280281 21.68689 C 44.080315 20.177132 47.04678 18.938995 50.143936 18.004135 Z M 86.723518 21.686661 L 69.46524 51.578773 C 69.286049 51.499542 69.104591 51.424858 68.921303 51.353371 L 77.85759 18.003456 C 80.955429 18.938316 83.922798 20.176674 86.723518 21.686661 Z M 96.888824 29.020065 L 72.490898 53.420036 C 72.338577 53.297546 72.184212 53.177788 72.026657 53.061897 L 89.28334 23.172287 C 92.012329 24.868057 94.559639 26.829086 96.888824 29.020065 Z M 104.831734 38.72068 L 74.942116 55.977356 C 74.826233 55.819809 74.706245 55.665436 74.583977 55.513123 L 98.981903 31.112915 C 101.173798 33.442787 103.135269 35.990768 104.831734 38.72068 Z M 109.999428 50.1437 L 76.649284 59.080437 C 76.578011 58.898064 76.503563 58.717506 76.424782 58.539009 L 106.317123 41.280731 C 107.82666 44.080757 109.064789 47.046997 109.999428 50.1437 Z M 64.015678 74.616302 C 64.010666 74.616302 64.005653 74.615616 64.000648 74.615616 C 63.995865 74.615616 63.991085 74.616302 63.986305 74.616302 C 58.140343 74.60788 53.386806 69.849777 53.386806 64.001778 C 53.386806 58.148537 58.148769 53.386803 64.001785 53.386803 C 69.854797 53.386803 74.616768 58.148766 74.616768 64.001778 C 74.616768 69.850235 69.862312 74.608788 64.015678 74.616302 Z M 66.063667 50.583351 C 65.870827 50.553757 65.676155 50.530296 65.480576 50.509125 L 65.480576 15.988243 C 68.74485 16.087517 71.928299 16.513275 74.999275 17.235252 L 66.063667 50.583351 Z M 62.520714 50.509125 C 62.325363 50.530525 62.130695 50.553978 61.937847 50.583351 L 53.002247 17.235718 C 56.072998 16.513504 59.256439 16.087738 62.520714 15.988243 L 62.520714 50.509125 Z M 15.988252 65.481026 L 50.508907 65.481026 C 50.530312 65.676376 50.553761 65.871048 50.58313 66.063889 L 17.235493 75.000175 C 16.513287 71.929199 16.087521 68.745529 15.988252 65.481026 Z M 61.937393 77.419983 C 62.130241 77.449577 62.325134 77.473022 62.520714 77.494202 L 62.520714 112.015083 C 59.25621 111.915588 56.072765 111.489822 53.001793 110.767616 L 61.937393 77.419983 Z M 65.480576 77.494659 C 65.676155 77.473251 65.871056 77.449806 66.063896 77.420212 L 74.999496 110.768066 C 71.928528 111.490051 68.745079 111.915817 65.480576 112.015083 L 65.480576 77.494659 Z M 77.494438 62.521164 C 77.47303 62.325813 77.449577 62.131142 77.420212 61.938293 L 110.767853 53.002243 C 111.490059 56.073212 111.915817 59.25666 112.01532 62.521164 L 77.494438 62.521164 Z"/>
        <path id="path2" fill="#000000" stroke="none" d="M 64.001785 55.95459 C 59.564724 55.95459 55.954601 59.564484 55.954601 64.001778 C 55.954601 68.439064 59.564495 72.048965 64.001785 72.048965 C 68.439072 72.048965 72.048973 68.439064 72.048973 64.001778 C 72.048973 59.564484 68.43885 55.95459 64.001785 55.95459 Z M 64.001785 69.089096 C 61.196747 69.089096 58.914463 66.807037 58.914463 64.001778 C 58.914463 61.19651 61.196518 58.914452 64.001785 58.914452 C 66.807053 58.914452 69.089111 61.19651 69.089111 64.001778 C 69.089111 66.807037 66.806824 69.089096 64.001785 69.089096 Z"/>
    </g>
</svg>
