<?xml version="1.0" encoding="UTF-8"?>
<!-- Generated by Pixelmator Pro 4.2 -->
<svg width="128" height="128" viewBox="0 0 128 128" xmlns="http://www.w3.org/2000/svg">
    <path id="Path" fill="#ffffff" stroke="#e5e7eb" stroke-width="1.5" d="M 34 6 L 94 6 C 109.463974 6 122 18.536026 122 34 L 122 94 C 122 109.463974 109.463974 122 94 122 L 34 122 C 18.536028 122 6 109.463974 6 94 L 6 34 C 6 18.536026 18.536028 6 34 6 Z"/>
    <g id="Group">
        <path id="path1" fill="#020617" stroke="none" d="M 74.110252 25.941597 C 74.796501 32.975777 69.567505 38.668274 64.936554 43.269753 C 62.833027 45.288002 64.587799 43.602753 63.488224 44.606247 C 63.258274 43.528496 62.816376 40.711502 62.857777 39.858749 C 63.151176 33.797478 68.077324 25.036873 72.393501 21.805649 C 73.088753 23.103226 73.660255 23.207626 74.110252 25.941597 Z M 75.575005 62.261101 C 72.803001 60.222603 69.162506 59.687096 65.824402 60.269852 C 65.393974 57.446106 64.963326 54.622353 64.532898 51.80085 C 69.821754 46.5606 75.572754 40.478401 75.874252 32.587204 C 76.007004 27.565201 75.25325 22.076553 72.098755 17.9991 C 68.27285 18.287621 65.574875 22.850098 63.544476 25.686226 C 60.19445 31.694847 60.976326 38.999252 62.261974 45.478348 C 60.440826 47.620354 57.920376 49.400101 56.125324 51.629852 C 50.8241 56.822853 46.2062 63.847351 47.114975 71.605347 C 47.527447 79.10685 52.941124 86.081848 60.322926 87.866104 C 63.125748 88.574852 66.091705 88.6446 68.927155 88.088852 C 69.421928 93.151352 71.237 98.504097 69.135277 103.418098 C 67.558701 107.013596 62.8634 110.177109 59.38715 108.350105 C 58.038502 107.639099 59.131325 108.235352 58.311649 107.783096 C 60.7187 107.204849 62.810749 105.452103 63.396648 104.261848 C 65.2817 100.96785 62.497101 96.074097 58.547001 96.706345 C 53.4575 96.809845 51.368599 103.771355 54.641899 107.247604 C 57.672199 110.667603 63.266151 110.1996 66.859627 107.963104 C 70.937752 105.308105 71.448502 99.989105 70.98275 95.448601 C 70.825249 93.923096 70.076004 89.441101 69.983749 87.82785 C 71.552002 87.267601 70.454002 87.695099 72.667999 86.817596 C 78.653 84.448349 82.471252 77.234848 80.754501 70.793098 C 80.039001 67.487854 78.405502 64.236603 75.575005 62.261101 Z M 76.83725 75.214355 C 77.318756 79.694099 74.468002 84.9366 69.9095 86.374344 C 69.6035 84.585602 69.522499 84.099594 69.318649 83.055603 C 68.233704 77.520599 67.644653 71.834854 66.807655 66.223351 C 70.463005 65.845352 74.58725 67.445099 75.858505 71.137352 C 76.407501 72.4356 76.630249 73.830597 76.83725 75.214355 Z M 65.252899 86.90535 C 59.528675 87.222595 54.004025 83.316605 52.575726 77.723099 C 50.890476 72.878845 51.387051 67.305603 54.422298 63.089104 C 56.931274 59.259598 60.286926 56.102852 63.486649 52.867348 C 63.898399 55.403099 64.31015 57.93885 64.721901 60.476845 C 57.99305 62.236351 53.461552 71.108101 57.488152 77.2416 C 58.68605 78.960602 61.935276 82.243347 63.710526 80.918098 C 61.231026 79.381348 59.203102 76.735352 59.639149 73.657349 C 59.454426 70.77285 62.721424 67.107597 65.604576 66.461853 C 66.590973 72.917099 67.722504 80.126099 68.7089 86.583603 C 67.571754 86.808601 66.41143 86.90535 65.252899 86.90535 Z"/>
    </g>
</svg>
