<svg width="128" height="128" viewBox="0 0 128 128" xmlns="http://www.w3.org/2000/svg">
  <rect x="6" y="6" width="116" height="116" rx="28" fill="#ffffff" stroke="#e5e7eb" stroke-width="1.5"/>

  <g transform="translate(6 27) scale(0.53)">
    <path d="m 10,111.5 199,0 m -199,-24 199,0 m -199,-24 199,0 m -199,-24 199,0 m -199,-24 199,0"
      fill="none"
      stroke="#020617"
      stroke-width="4"
      stroke-miterlimit="10"
      opacity="0.28"/>

    <path d="m 183,13.5 14,0 0,99.834 -14,0 z
             m -9.834,0 2.668,0 0,99.834 -2.668,0 z
             M 42,13.5 l 2.667,0 0,99.834 -2.667,0 z
             m -22,0 14,0 0,99.834 -14,0 z"
      fill="#020617"/>

    <path d="m 166.16701,75.167 c 0,3.037566 -2.46244,5.5 -5.5,5.5 -3.03757,0 -5.5,-2.462434 -5.5,-5.5 0,-3.037566 2.46243,-5.5 5.5,-5.5 3.03756,0 5.5,2.462434 5.5,5.5 z
             m 0,-25.167 c 0,3.037566 -2.46244,5.5 -5.5,5.5 -3.03757,0 -5.5,-2.462434 -5.5,-5.5 0,-3.037566 2.46243,-5.5 5.5,-5.5 3.03756,0 5.5,2.462434 5.5,5.5 z
             M 63.5,75.167 c 0,3.037566 -2.462434,5.5 -5.5,5.5 -3.037566,0 -5.5,-2.462434 -5.5,-5.5 0,-3.037566 2.462434,-5.5 5.5,-5.5 3.037566,0 5.5,2.462434 5.5,5.5 z
             M 63.5,50 c 0,3.037566 -2.462434,5.5 -5.5,5.5 -3.037566,0 -5.5,-2.462434 -5.5,-5.5 0,-3.037566 2.462434,-5.5 5.5,-5.5 3.037566,0 5.5,2.462434 5.5,5.5 z"
      fill="#020617"/>
  </g>
</svg>
