<?xml version="1.0" encoding="UTF-8"?>
<!-- Generated by Pixelmator Pro 4.2 -->
<svg width="128" height="128" viewBox="0 0 128 128" xmlns="http://www.w3.org/2000/svg">
    <path id="Path" fill="#ffffff" stroke="#e5e7eb" stroke-width="1.5" d="M 34 6 L 94 6 C 109.463974 6 122 18.536026 122 34 L 122 94 C 122 109.463974 109.463974 122 94 122 L 34 122 C 18.536028 122 6 109.463974 6 94 L 6 34 C 6 18.536026 18.536028 6 34 6 Z"/>
    <g id="Group">
        <path id="path1" fill="#020617" stroke="none" d="M 78.575325 43.910309 C 70.704994 53.290024 66.769844 60.297806 66.769875 64.933746 C 66.769844 69.407959 70.516327 76.119293 78.009308 85.067719 L 75.664391 88.382965 C 71.890915 86.172791 68.656563 85.067719 65.961273 85.067719 C 62.457352 85.067719 60.705391 87.170044 60.705414 91.374756 C 60.705391 95.687225 62.619057 99.972778 66.446442 104.231384 L 64.344086 107.384918 C 53.724548 99.514557 48.41478 92.506775 48.414787 86.361481 C 48.41478 83.234924 49.492905 80.755219 51.649162 78.922424 C 53.643677 77.197418 56.231178 76.334915 59.411667 76.334915 C 61.460075 76.334915 63.724136 76.873978 66.203857 77.952103 L 49.951118 56.362656 C 57.659691 49.570465 61.513992 43.425186 61.514 37.926712 C 61.513992 33.560333 58.899536 28.061905 53.670647 21.431396 L 60.139397 21.431396 L 78.575325 43.910309"/>
    </g>
</svg>
