<?xml version="1.0" encoding="UTF-8"?>
<!-- Generated by Pixelmator Pro 4.2 -->
<svg width="128" height="128" viewBox="0 0 128 128" xmlns="http://www.w3.org/2000/svg">
    <path id="Path" fill="#ffffff" stroke="#e5e7eb" stroke-width="1.5" d="M 34 6 L 94 6 C 109.463974 6 122 18.536026 122 34 L 122 94 C 122 109.463974 109.463974 122 94 122 L 34 122 C 18.536028 122 6 109.463974 6 94 L 6 34 C 6 18.536026 18.536028 6 34 6 Z"/>
    <g id="Group">
        <path id="path1" fill="#020617" fill-rule="evenodd" stroke="none" d="M 49.508259 90.479042 C 37.477417 87.624603 28.889797 81.461578 25.156601 74.236015 C 23.401062 70.967583 22.361206 67.403938 22.127197 63.694138 C 22.123604 63.637802 22.123955 63.587585 22.123066 63.534119 C 22.052502 59.390518 23.163097 55.476959 26.560421 51.057602 C 29.675858 46.982391 34.445496 43.491302 40.612659 40.809845 C 47.133343 37.963135 54.862358 36.552475 63.191135 36.809875 C 64.885117 36.862259 66.555161 36.981232 68.195862 37.162674 C 69.979118 37.344833 71.727455 37.601883 73.433502 37.928574 C 76.748558 38.473618 79.904678 39.299103 82.849113 40.367935 C 85.744423 41.377014 88.400856 42.588242 91.013023 44.152435 C 93.323143 45.535919 95.124214 46.894562 96.892006 48.537964 C 97.777779 49.395126 98.600914 50.287735 99.355843 51.212219 C 99.951279 51.965347 100.504784 52.733765 101.013634 53.515503 C 101.578667 54.424683 102.077446 55.296417 102.54274 56.283539 C 104.066628 59.515793 104.868347 63.184738 104.951309 66.289383 C 104.953491 72.439262 101.829941 77.969757 96.606339 82.33242 C 92.756859 85.686539 88.145973 88.190338 82.176277 90.062157 C 77.728661 91.456802 73.0924 92.20974 68.488182 92.343117 C 66.963402 92.420341 65.786201 92.36454 64.23568 92.349785 C 59.010815 92.181297 54.059025 91.53492 49.508259 90.479042 Z M 75.400002 82.68 C 76.199028 82.06134 76.749641 81.490738 77.590958 80.498398 C 79.04734 78.780479 80.01358 77.065079 80.617836 74.8041 C 80.685883 74.582703 80.747253 74.360222 80.801804 74.136658 C 80.933922 73.614479 81.029144 73.088882 81.09034 72.561836 C 81.214539 70.842125 81.118958 68.818199 80.605247 66.86808 C 80.474564 66.302162 80.349823 65.772964 80.227417 65.268066 C 79.702003 62.925186 79.194405 61.132019 78.333824 58.705978 C 78.282883 58.569366 78.217354 58.364151 78.164795 58.227539 C 76.347168 53.498032 74.466698 50.269012 71.807922 47.864578 C 68.183441 44.442062 62.845001 42.528305 57.146744 44.275742 C 54.864883 44.975586 52.963722 46.160873 51.703358 47.445724 C 50.969143 48.180847 50.253284 49.092728 49.697441 49.980835 C 48.287865 52.248474 47.609261 53.967117 47.38282 56.383087 C 47.333141 57.235199 47.276802 58.270737 47.38282 59.263077 C 47.558502 60.374939 47.665245 61.306625 47.891323 62.378876 C 48.521862 65.61438 49.417721 68.567459 50.130337 70.78434 C 50.138443 70.80954 50.145466 70.835281 50.153023 70.860664 C 50.493401 71.99826 50.903259 73.081863 51.372879 74.107498 C 51.758797 74.993462 52.236702 76.0056 52.698227 76.802818 C 53.008358 77.362625 53.33506 77.907845 53.672382 78.422821 C 54.251263 79.312737 54.801525 79.93248 55.426846 80.641861 C 56.416119 81.729416 57.455261 82.608902 58.53022 83.305138 C 60.217182 84.334381 61.959217 84.956459 63.708096 85.257057 C 66.916595 85.918915 70.499146 85.353905 72.387878 84.458038 C 73.639961 83.86422 74.311539 83.522758 75.400002 82.68 Z"/>
    </g>
</svg>
