<?xml version="1.0" encoding="UTF-8"?>
<!-- Generated by Pixelmator Pro 4.2 -->
<svg width="128" height="128" viewBox="0 0 128 128" xmlns="http://www.w3.org/2000/svg">
    <path id="Path" fill="#ffffff" stroke="#e5e7eb" stroke-width="1.5" d="M 34 6 L 94 6 C 109.463974 6 122 18.536026 122 34 L 122 94 C 122 109.463974 109.463974 122 94 122 L 34 122 C 18.536028 122 6 109.463974 6 94 L 6 34 C 6 18.536026 18.536028 6 34 6 Z"/>
    <g id="Group">
        <path id="path1" fill="#020617" stroke="none" d="M 57.966869 67.272758 C 57.966869 67.272758 58.164722 65.528534 58.992577 65.226547 C 59.783981 64.934982 60.158859 64.987045 60.158859 64.987045 L 73.545097 64.757957 C 73.545097 64.757957 68.973679 73.989304 47.892048 96.940109 L 66.084 96.940109 L 66.365158 92.556137 C 66.365158 92.556137 66.365158 91.249268 64.501183 89.942406 L 77.653122 74.55162 L 78.028 96.940109 L 84 96.940109 L 84 99.460114 L 77.93428 99.460114 L 77.93428 106.176666 C 77.93428 106.176666 78.309158 111.122963 84 110.654358 L 84 114.189667 L 60.653488 114.2938 L 60.653488 111.49263 C 60.653488 111.49263 66.917061 110.466919 66.495323 106.364105 L 66.495323 103.750381 C 66.495323 103.750381 66.875412 99.74128 62.095726 99.647552 L 44.523361 99.928719 C 44.523361 99.928719 43.773605 98.944664 44.533775 97.783585 C 48.27734 92.08754 57.316044 81.965858 57.966869 67.272758 Z"/>
        <path id="path2" fill="#020617" stroke="none" d="M 57.966869 16.388397 C 57.966869 16.388397 58.164722 14.64418 58.992577 14.342194 C 59.783981 14.050621 60.158859 14.102692 60.158859 14.102692 L 73.545097 13.873604 C 73.545097 13.873604 68.973679 23.10495 47.892048 46.055756 L 66.084 46.055756 L 66.365158 41.671776 C 66.365158 41.671776 66.365158 40.364914 64.501183 39.058052 L 77.653122 23.667267 L 78.028 46.055756 L 84 46.055756 L 84 48.57576 L 77.93428 48.57576 L 77.93428 55.292313 C 77.93428 55.292313 78.309158 60.238609 84 59.770004 L 84 63.305313 L 60.653488 63.409439 L 60.653488 60.608276 C 60.653488 60.608276 66.917061 59.582565 66.495323 55.479752 L 66.495323 52.866028 C 66.495323 52.866028 66.875412 48.856918 62.095726 48.763199 L 44.523361 49.044357 C 44.523361 49.044357 43.773605 48.06031 44.533775 46.899231 C 48.27734 41.203186 57.316044 31.081505 57.966869 16.388397 Z"/>
    </g>
</svg>
