<?xml version="1.0" encoding="UTF-8"?>
<!-- Generated by Pixelmator Pro 4.2 -->
<svg width="128" height="128" viewBox="0 0 128 128" xmlns="http://www.w3.org/2000/svg">
    <path id="Path" fill="#ffffff" stroke="#e5e7eb" stroke-width="1.5" d="M 34 6 L 94 6 C 109.463974 6 122 18.536026 122 34 L 122 94 C 122 109.463974 109.463974 122 94 122 L 34 122 C 18.536028 122 6 109.463974 6 94 L 6 34 C 6 18.536026 18.536028 6 34 6 Z"/>
    <g id="Group">
        <path id="path1" fill="#020617" stroke="none" d="M 94.685539 64.085968 C 94.685539 60.930969 97.187775 58.428734 100.342773 58.428734 C 103.497765 58.428734 106 60.930969 106 64.085968 C 106 67.240952 103.497765 69.743195 100.342773 69.743195 C 97.187775 69.743195 94.685539 67.240952 94.685539 64.085968 Z M 94.685539 36.887749 C 94.685539 33.732758 97.187775 31.230522 100.342773 31.230522 C 103.497765 31.230522 106 33.732758 106 36.887749 C 106 40.042747 103.497765 42.544983 100.342773 42.544983 C 97.187775 42.544983 94.685539 40.042747 94.685539 36.887749 Z M 59.545452 22.091927 C 78.149033 22.091927 91.312965 31.448112 91.312965 49.072548 C 91.312965 77.685074 62.591656 94.221581 35.067062 105.753624 C 34.849476 105.971207 34.523098 106.080002 34.19672 106.080002 C 33.543964 106.080002 33 105.536034 33 104.883278 C 33 104.5569 33.108791 104.230522 33.326378 104.012939 C 55.411327 91.175385 78.475403 75.182831 78.475403 50.269272 C 78.475403 37.105339 71.512665 24.485367 59.545452 24.485367 C 50.950817 24.485367 44.53204 30.686562 41.703426 38.954819 C 43.226528 38.084473 44.749626 37.540512 46.381519 37.540512 C 52.365124 37.540512 57.260803 42.436188 57.260803 48.419792 C 57.260803 54.729774 52.473919 60.060631 46.381519 60.060631 C 39.853951 60.060631 34.19672 54.83857 34.19672 48.419792 C 34.19672 34.059135 45.402382 22.091927 59.545452 22.091927 Z"/>
    </g>
</svg>
