<?xml version="1.0" encoding="UTF-8"?>
<!-- Generated by Pixelmator Pro 4.2 -->
<svg width="128" height="128" viewBox="0 0 128 128" xmlns="http://www.w3.org/2000/svg">
    <path id="Path" fill="#ffffff" stroke="#e5e7eb" stroke-width="1.5" d="M 34 6 L 94 6 C 109.463974 6 122 18.536026 122 34 L 122 94 C 122 109.463974 109.463974 122 94 122 L 34 122 C 18.536028 122 6 109.463974 6 94 L 6 34 C 6 18.536026 18.536028 6 34 6 Z"/>
    <g id="Group">
        <g id="g1">
            <g id="g2">
                <path id="path1" fill="#020617" stroke="none" d="M 109.279999 46.080002 L 110.360001 46.080002 L 110.360001 89.82 C 110.360001 92.034004 109.064003 93.654007 107.660004 95.220001 C 105.391998 97.110001 102.907997 97.757996 100.099998 97.757996 C 96.644005 97.757996 94.699997 95.544006 94.699997 93.276001 C 94.862 88.632004 101.342003 84.636002 105.284004 84.797997 C 106.742004 84.852005 108.577995 85.608002 109.279999 85.877998 Z"/>
                <path id="path2" fill="#020617" stroke="none" d="M 67.699997 46.080002 L 68.779999 46.080002 L 68.779999 89.82 C 68.779999 92.034004 67.484001 93.654007 66.080002 95.220001 C 63.812 97.110001 61.327999 97.757996 58.52 97.757996 C 55.063999 97.757996 53.119999 95.544006 53.119999 93.276001 C 53.282001 88.632004 59.762001 84.636002 63.703999 84.797997 C 65.162003 84.852005 66.998001 85.608002 67.699997 85.877998 Z"/>
                <path id="path3" fill="#020617" stroke="none" d="M 26.120001 46.080002 L 27.200001 46.080002 L 27.200001 89.82 C 27.200001 92.034004 25.903999 93.654007 24.5 95.220001 C 22.232 97.110001 19.748001 97.757996 16.940001 97.757996 C 13.484 97.757996 11.54 95.544006 11.54 93.276001 C 11.702 88.632004 18.181999 84.636002 22.124001 84.797997 C 23.581999 84.852005 25.418001 85.608002 26.120001 85.877998 Z"/>
                <path id="path4" fill="#020617" stroke="none" d="M 60.576 35.010002 C 59.387997 35.010002 58.740002 35.82 58.740002 37.169998 C 58.740002 38.681999 61.169998 39.870003 63.276001 39.870003 C 67.001999 39.870003 69 36.629997 68.979698 34.977707 C 68.990555 33.565826 67.922531 32.422409 67.571671 32.090057 C 67.787354 31.642418 71.243675 30.470055 71.135674 27.338058 C 70.919678 24.368057 69.083672 23.450058 67.085678 23.450058 C 64.763672 23.450058 62.819675 25.664055 62.765675 27.014061 C 62.765675 28.040054 63.575676 28.634056 64.385674 28.634056 C 65.087669 28.580055 65.681671 28.148056 65.735672 27.44606 C 65.735672 26.906059 65.681671 26.258057 65.195671 26.096054 C 64.871674 25.286057 65.303673 24.476059 66.491669 24.476059 C 67.733673 24.476059 68.273674 25.718056 68.273674 27.068054 C 68.273674 29.444061 67.03167 30.956055 63.413673 30.956055 C 63.359676 31.334061 63.305676 31.550056 63.197674 32.036057 C 64.709671 32.090057 66.221672 32.576057 66.221672 34.19606 C 66.221672 36.356056 64.655678 39.00206 62.711674 39.00206 C 62.009674 39.00206 61.361671 38.570053 61.145676 38.192055 C 61.631672 37.598061 62.225677 36.950058 62.225677 36.356056 C 62.225677 35.65406 61.415676 35.006058 60.497673 35.006058 Z"/>
            </g>
        </g>
        <path id="path5" fill="none" stroke="#020617" stroke-width="1.08" d="M 22.044071 40.949997 L 22 31.769997 L 52.849998 31.769997"/>
        <path id="path6" fill="none" stroke="#020617" stroke-width="1.08" d="M 111 40.896004 L 111 31.716003 L 77.150002 31.716003"/>
    </g>
</svg>
